<svg width="3500" height="1038" viewBox="0 0 3500 1038" fill="none" xmlns="http://www.w3.org/2000/svg">
<g clip-path="url(#clip0_19_59)">
<path d="M416 499C227.2 406.2 54.6667 380.333 -8 379L-44 863L3568 887C3586.67 787 3624 583 3624 567C3624 547 3576 379 3520 499C3464 619 3072 435 2888 407C2704 379 2712 355 2448 435C2184 515 2368 463 1948 455C1528 447 1552 499 1440 535C1328 571 1260 379 868 499C554.4 595 436 539 416 499Z" fill="black"/>
<path d="M416 1134C227.2 1226.8 54.6667 1252.67 -8 1254L-44 770L3568 746C3586.67 846 3624 1050 3624 1066C3624 1086 3576 1254 3520 1134C3464 1014 3072 1198 2888 1226C2704 1254 2712 1278 2448 1198C2184 1118 2368 1170 1948 1178C1528 1186 1552 1134 1440 1098C1328 1062 1260 1254 868 1134C554.4 1038 436 1094 416 1134Z" fill="black"/>
</g>
<defs>
<clipPath id="clip0_19_59">
<rect width="3500" height="1038" fill="white"/>
</clipPath>
</defs>
</svg>
