<svg width="3500" height="1038" viewBox="0 0 3500 1038" fill="none" xmlns="http://www.w3.org/2000/svg">
<g clip-path="url(#clip0_8_5)">
<path d="M376 779C187.2 686.2 14.6667 660.333 -48 659L-84 1143L3528 1167C3546.67 1067 3584 863 3584 847C3584 827 3536 659 3480 779C3424 899 3032 715 2848 687C2664 659 2672 635 2408 715C2144 795 2328 743 1908 735C1488 727 1512 779 1400 815C1288 851 1220 659 828 779C514.4 875 396 819 376 779Z" fill="black"/>
</g>
<defs>
<clipPath id="clip0_8_5">
<rect width="3500" height="1038" fill="white"/>
</clipPath>
</defs>
</svg>
