<svg width="3500" height="1038" viewBox="0 0 3500 1038" fill="none" xmlns="http://www.w3.org/2000/svg">
<g clip-path="url(#clip0_8_5)">
<path d="M379 753C190.2 660.2 17.6667 634.333 -45 633L-81 1117L3531 1141C3549.67 1041 3587 837 3587 821C3587 801 3539 633 3483 753C3427 873 3035 689 2851 661C2667 633 2675 609 2411 689C2147 769 2331 717 1911 709C1491 701 1515 753 1403 789C1291 825 1223 633 831 753C517.4 849 399 793 379 753Z" fill="#E449B3"/>
</g>
<defs>
<clipPath id="clip0_8_5">
<rect width="3500" height="1038" fill="white"/>
</clipPath>
</defs>
</svg>
