<svg width="3500" height="1038" viewBox="0 0 3500 1038" fill="none" xmlns="http://www.w3.org/2000/svg">
<g clip-path="url(#clip0_19_59)">
<path d="M416 466C227.2 373.2 54.6667 347.333 -8 346L-44 830L3568 854C3586.67 754 3624 550 3624 534C3624 514 3576 346 3520 466C3464 586 3072 402 2888 374C2704 346 2712 322 2448 402C2184 482 2368 430 1948 422C1528 414 1552 466 1440 502C1328 538 1260 346 868 466C554.4 562 436 506 416 466Z" fill="#E449B3"/>
<path d="M416 1172C227.2 1264.8 54.6667 1290.67 -8 1292L-44 808L3568 784C3586.67 884 3624 1088 3624 1104C3624 1124 3576 1292 3520 1172C3464 1052 3072 1236 2888 1264C2704 1292 2712 1316 2448 1236C2184 1156 2368 1208 1948 1216C1528 1224 1552 1172 1440 1136C1328 1100 1260 1292 868 1172C554.4 1076 436 1132 416 1172Z" fill="#E449B3"/>
</g>
<defs>
<clipPath id="clip0_19_59">
<rect width="3500" height="1038" fill="white"/>
</clipPath>
</defs>
</svg>
